<?xml version="1.0" encoding="utf-8"?>
<svg version="1.2" baseProfile="tiny-ps" xmlns="http://www.w3.org/2000/svg" width="889px" height="500px" viewBox="0 0 889 500" preserveAspectRatio="xMidYMid meet">
 <g fill="#000000">
  <path d="M 391.08 262.24 c -0.67 -0.67 -0.67 -3.96 0.04 -4.12 0.25 -0.08 15.82 -0.12 34.56 -0.04 l 34.02 0.12 0 1.83 0 1.87 -32.69 0 c -21.53 0 -32.69 0.12 -32.69 0.42 0 0.58 -2.66 0.50 -3.25 -0.08 z "/>
 </g>
 <g fill="#ffffff">
  <path d="M 0 249.84 l 0 -249.84 444.29 0 444.29 0 0 249.84 0 249.84 -444.29 0 -444.29 0 0 -249.84 z "/>
 </g>
 <g fill="#646464">
  <path d="M334.28 292.31 l0.12 -4.58 -1.62 0 c-1.58 0 -2.12 -0.54 -2.17 -2.17 0 -0.21 2.25 -0.33 5 -0.33 l5 0 0 1.25 c0 1.17 -0.08 1.25 -1.67 1.25 -1.50 0 -1.67 0.12 -1.67 1.04 0 0.58 -0.17 1.04 -0.42 1.04 -0.21 0 -0.42 -0.54 -0.42 -1.21 0 -1.29 0.58 -1.71 2.54 -1.71 0.79 0 1.21 -0.21 1.21 -0.62 0 -0.50 -0.75 -0.62 -4.37 -0.62 -3.54 0 -4.37 0.12 -4.37 0.58 0 0.42 0.54 0.67 1.58 0.75 l1.54 0.12 0.12 4.71 c0.08 4.33 0.17 4.66 0.92 4.66 0.71 0 0.83 -0.29 0.83 -1.67 0 -0.92 0.21 -1.67 0.42 -1.67 0.25 0 0.42 0.83 0.42 1.87 l0 1.87 -1.54 0 -1.58 0 0.12 -4.58z"/>
  <path d="M344.57 296.39 c-3.83 -2.08 -4.54 -7.04 -1.46 -9.66 2.17 -1.79 5.91 -1.96 7.99 -0.29 0.96 0.79 0.96 0.79 0.17 1.67 -0.75 0.79 -0.87 0.83 -1.75 0.25 -2.42 -1.58 -5.16 -0.21 -5.16 2.62 0 2.83 2.46 4.21 5 2.79 0.92 -0.50 1.12 -0.46 1.79 0.08 1 0.92 0.92 1.25 -0.62 2.21 -1.54 0.92 -4.58 1.08 -5.95 0.33z m5.04 -0.58 c1.37 -0.67 1.79 -1.83 0.54 -1.46 -1.46 0.46 -4.12 0.50 -4.91 0.08 -0.46 -0.25 -1.08 -1.21 -1.33 -2.17 -0.96 -3.16 1.50 -5.83 4.62 -4.91 0.58 0.12 1.29 0.33 1.62 0.42 1.29 0.37 0.87 -0.92 -0.54 -1.50 -1.92 -0.79 -2.91 -0.79 -4.71 0.08 -3.83 1.79 -4.04 7.08 -0.42 9.29 1.62 1 3.25 1.04 5.12 0.17z"/>
  <path d="M360.18 296.60 c-1.17 -0.42 -2.91 -2.33 -3.37 -3.75 -1.62 -4.91 3.50 -9.16 8.54 -7.04 1.83 0.75 2.08 1.21 1.17 2.37 -0.75 0.87 -0.83 0.92 -1.79 0.25 -3 -2.12 -6.45 0.96 -4.79 4.21 0.96 1.87 3 2.33 4.79 1.08 0.87 -0.62 1 -0.62 1.75 0.21 1 1.04 0.83 1.37 -1.04 2.29 -1.37 0.67 -3.96 0.83 -5.25 0.37z m4.87 -0.87 c0.96 -0.50 1.25 -0.87 1 -1.29 -0.29 -0.42 -0.54 -0.42 -1.21 -0.08 -1.29 0.71 -3.62 0.54 -4.66 -0.29 -1.08 -0.87 -1.58 -3.71 -0.83 -5.04 0.96 -1.83 4.12 -2.46 5.75 -1.17 0.42 0.33 0.67 0.29 0.92 -0.12 0.50 -0.79 -0.87 -1.71 -2.83 -1.96 -3.08 -0.37 -6.04 2.21 -6.04 5.25 0 4.08 4.29 6.62 7.91 4.71z"/>
  <path d="M371.05 296.18 c-2.75 -1.37 -3.83 -5.33 -2.21 -8.12 1.46 -2.54 5.50 -3.58 8.37 -2.08 4.12 2.08 4.37 7.37 0.50 9.95 -1.71 1.17 -4.58 1.25 -6.66 0.25z m5.79 -0.33 c1.96 -1 2.91 -2.58 2.91 -4.83 0 -4.79 -5.58 -7 -9.37 -3.66 -2.29 2.04 -2.42 5.12 -0.29 7.25 1.92 1.96 4.50 2.42 6.75 1.25z"/>
  <path d="M373.09 294.93 c-0.33 -0.12 -1.04 -0.62 -1.54 -1.08 -2 -1.83 -0.79 -6.16 1.83 -6.66 1.67 -0.33 3.79 0.71 4.33 2.08 0.58 1.50 0.21 3.83 -0.75 4.79 -0.83 0.79 -2.87 1.29 -3.87 0.87z m3.87 -2.12 c1.37 -2.37 -0.08 -5.08 -2.79 -5.08 -2.75 0 -4.08 3.29 -2.29 5.58 0.75 0.96 1.17 1.12 2.58 1 1.42 -0.12 1.83 -0.33 2.50 -1.50z"/>
  <path d="M382.25 291.06 l0 -5.83 1.21 0 c1.04 0 1.58 0.50 3.87 3.58 l2.62 3.54 0.12 -3.54 0.12 -3.58 1.33 0 1.33 0 0 5.83 0 5.83 -1.33 0 c-1.17 0 -1.58 -0.42 -3.96 -3.58 l-2.62 -3.54 -0.12 3.54 -0.12 3.58 -1.21 0 -1.25 0 0 -5.83z m2.08 1.87 c0 -2.75 0.12 -3.54 0.58 -3.54 0.29 0 1.71 1.58 3.12 3.54 1.71 2.33 2.87 3.54 3.41 3.54 0.75 0 0.79 -0.33 0.79 -5.41 0 -5.12 -0.04 -5.41 -0.83 -5.41 -0.75 0 -0.83 0.29 -0.83 3.54 0 2.62 -0.12 3.54 -0.54 3.54 -0.29 0 -1.71 -1.58 -3.16 -3.54 -1.71 -2.29 -2.91 -3.54 -3.41 -3.54 -0.75 0 -0.79 0.37 -0.79 5.41 0 5.12 0.04 5.41 0.83 5.41 0.75 0 0.83 -0.29 0.83 -3.54z"/>
  <path d="M396.16 296.31 c-1.71 -0.75 -1.96 -1.21 -1.29 -2.46 0.50 -0.92 0.62 -0.96 1.33 -0.46 1.04 0.79 3.46 1.42 4.21 1.12 0.33 -0.12 0.58 -0.54 0.58 -0.96 0 -0.54 -0.62 -0.96 -2.17 -1.46 -1.21 -0.42 -2.54 -1 -2.91 -1.37 -1.04 -0.87 -1 -3.50 0.08 -4.46 1.04 -0.96 4.46 -1.29 6.41 -0.62 1.58 0.50 1.83 1.08 1 2.21 -0.50 0.62 -0.71 0.62 -2.29 0.08 -0.96 -0.33 -2.04 -0.50 -2.42 -0.37 -1.25 0.50 -0.46 1.62 1.54 2.25 2.37 0.75 3.54 1.71 3.91 3.12 0.33 1.29 -0.71 3 -2.17 3.54 -1.50 0.58 -4.29 0.50 -5.83 -0.17z m6.50 -0.87 c1.04 -0.92 1.08 -2.79 0.12 -3.66 -0.42 -0.33 -1.67 -1 -2.83 -1.42 -1.71 -0.62 -2.12 -0.96 -2.21 -1.87 -0.12 -0.92 0.08 -1.21 0.92 -1.42 0.58 -0.12 1.71 0 2.58 0.25 1.25 0.42 1.58 0.42 1.87 -0.04 0.25 -0.42 0.04 -0.71 -0.79 -1.08 -2.62 -1.17 -6.08 -0.21 -6.58 1.83 -0.42 1.58 0.21 2.29 3.08 3.41 2.58 1 3.16 1.62 2.75 2.75 -0.37 1 -2.04 1.17 -4.12 0.50 -1.17 -0.42 -1.96 -0.50 -2.12 -0.25 -0.33 0.54 -0.25 0.62 1.50 1.42 1.79 0.79 4.75 0.58 5.83 -0.42z"/>
  <path d="M408.40 292.31 l0.12 -4.58 -1.87 0 c-1.83 0 -1.92 -0.04 -1.92 -1.25 l0 -1.25 5 0 5 0 0 1.25 c0 1.21 -0.08 1.25 -1.87 1.25 -1.46 0 -1.79 0.12 -1.62 0.62 0.17 0.33 0.04 0.62 -0.21 0.62 -0.71 0 -0.54 -1.54 0.21 -1.83 0.37 -0.12 1.21 -0.25 1.87 -0.25 0.79 0 1.21 -0.21 1.21 -0.62 0 -0.50 -0.75 -0.62 -4.37 -0.62 -3.62 0 -4.37 0.12 -4.37 0.62 0 0.37 0.37 0.62 1 0.62 2.25 0 2.33 0.17 2.33 5 0 3.96 0.08 4.54 0.75 4.71 0.46 0.12 0.37 0.21 -0.33 0.25 l-1.04 0.04 0.12 -4.58z"/>
  <path d="M415.98 291.06 l0 -5.83 3.12 0 c3.46 0 5.70 0.71 6.41 2 0.83 1.54 0.54 3.79 -0.58 4.91 l-1.04 1.04 1.25 1.87 1.29 1.83 -1.67 0 c-1.50 0 -1.75 -0.17 -2.58 -1.67 -0.75 -1.33 -1.17 -1.67 -2.12 -1.67 -1.08 0 -1.17 0.12 -1.17 1.67 0 1.62 -0.04 1.67 -1.46 1.67 l-1.46 0 0 -5.83z m2.50 3.75 c0 -1.67 0 -1.67 1.67 -1.67 1.50 0 1.71 0.12 2.50 1.67 0.54 1.08 1.12 1.67 1.67 1.67 1.04 0 1.04 -0.33 0 -1.67 -1.04 -1.33 -1.04 -2.17 -0.04 -2.79 1.08 -0.67 1.50 -2.75 0.79 -4.16 -0.71 -1.46 -2.62 -2.17 -6.04 -2.17 l-2.62 -0.04 0 5.41 0 5.41 1.04 0 c0.96 0 1.04 -0.17 1.04 -1.67z"/>
  <path d="M418.56 289.52 l0.12 -2.42 2.04 0.04 c1.46 0 2.17 0.21 2.58 0.79 1.46 1.96 -0.04 3.96 -2.96 3.96 l-1.92 0 0.12 -2.37z m3.83 1.42 c0.50 -0.37 0.71 -0.96 0.58 -1.75 -0.12 -1.17 -0.29 -1.25 -2.08 -1.46 l-2 -0.25 0 2 c0 2 0 2 1.37 2 0.75 0 1.71 -0.25 2.12 -0.54z"/>
  <path d="M430.22 296.35 c-0.50 -0.29 -1.17 -0.92 -1.50 -1.33 -0.71 -1.08 -1.17 -3.54 -0.67 -3.54 0.25 0 0.42 0.46 0.42 1.04 0 2.83 4.21 4.83 7.04 3.33 1.83 -0.92 2.54 -2.79 2.54 -6.87 0 -3.29 0 -3.33 -1.04 -3.33 -1.04 0 -1.04 0 -1.04 3.87 0 4.33 -0.33 5.12 -2.37 5.54 -1.08 0.21 -1.54 0.04 -2.37 -0.79 -1 -1 -1.08 -1.37 -1.08 -4.83 0 -3.21 -0.08 -3.75 -0.71 -3.91 -0.50 -0.12 -0.42 -0.21 0.29 -0.25 1.04 -0.04 1.04 -0.04 0.92 3.37 -0.12 4.29 0.37 5.50 2.42 5.66 2.08 0.21 2.50 -0.62 2.50 -5.20 l0 -3.87 1.50 0 1.50 0 -0.17 4.58 c-0.12 4.33 -0.17 4.62 -1.25 5.70 -0.92 0.92 -1.58 1.12 -3.54 1.25 -1.50 0.08 -2.79 -0.08 -3.37 -0.42z"/>
  <path d="M442.75 296.06 c-5.91 -3.58 -2.25 -11.95 4.62 -10.66 0.79 0.17 1.87 0.62 2.42 1.08 l0.96 0.79 -0.92 0.92 c-0.87 0.87 -0.96 0.92 -1.71 0.25 -0.87 -0.79 -2.66 -0.92 -3.83 -0.29 -1.12 0.58 -1.71 2.66 -1.17 4.16 0.71 2.08 2.62 2.62 4.87 1.46 1.08 -0.54 1.25 -0.54 1.92 0.21 0.87 0.96 0.54 1.58 -1.29 2.33 -1.96 0.83 -4.29 0.71 -5.87 -0.25z m5.54 -0.25 c0.79 -0.37 1.42 -0.83 1.42 -1.04 0 -0.62 -0.92 -0.87 -1.37 -0.42 -0.58 0.58 -3.41 0.62 -4.41 0.04 -2.04 -1.04 -2.12 -5.25 -0.17 -6.54 1.21 -0.79 3.62 -0.87 4.54 -0.08 0.50 0.42 0.71 0.42 1.12 0 1.21 -1.25 -2.83 -2.54 -5.29 -1.71 -2.25 0.71 -3.58 2.58 -3.58 4.96 0 2.21 0.71 3.50 2.66 4.66 1.58 0.96 3.21 1 5.08 0.12z"/>
  <path d="M454.62 292.31 l0.12 -4.58 -1.87 0 c-1.83 0 -1.92 -0.04 -1.92 -1.25 l0 -1.25 5 0 5 0 0 1.25 c0 1.21 -0.08 1.25 -1.87 1.25 -1.46 0 -1.79 0.12 -1.62 0.62 0.17 0.33 0.04 0.62 -0.21 0.62 -0.71 0 -0.54 -1.54 0.21 -1.83 0.37 -0.12 1.21 -0.25 1.87 -0.25 0.79 0 1.21 -0.21 1.21 -0.62 0 -0.50 -0.75 -0.62 -4.37 -0.62 -3.62 0 -4.37 0.12 -4.37 0.62 0 0.37 0.37 0.62 1 0.62 2.25 0 2.33 0.17 2.33 5 0 3.96 0.08 4.54 0.75 4.71 0.46 0.12 0.37 0.21 -0.33 0.25 l-1.04 0.04 0.12 -4.58z"/>
  <path d="M462.20 291.06 l0 -5.83 1.46 0 1.46 0 0 5.83 0 5.83 -1.46 0 -1.46 0 0 -5.83z m2.50 0 l0 -5.41 -1.04 0 -1.04 0 0 5.41 0 5.41 1.04 0 1.04 0 0 -5.41z"/>
  <path d="M470.32 296.51 c-3.04 -1.33 -4.41 -5.58 -2.75 -8.29 2.37 -3.71 7.33 -4.04 10.45 -0.71 0.87 0.92 1.04 1.50 1.04 3.58 0 2.25 -0.12 2.54 -1.54 4 -1.37 1.37 -1.79 1.54 -3.96 1.67 -1.33 0.04 -2.79 -0.04 -3.25 -0.25z m5.54 -0.87 c1.54 -0.96 3 -3.12 3 -4.50 0 -1.33 -1.04 -3.16 -2.33 -4.21 -4.37 -3.46 -11.03 1.25 -8.62 6.08 1.54 3.16 5.12 4.33 7.95 2.62z"/>
  <path d="M471.52 294.81 c-1.96 -0.79 -2.87 -3.87 -1.79 -5.91 0.58 -1.08 2.79 -2 4.25 -1.71 2.62 0.50 3.75 4.41 1.87 6.54 -1.04 1.21 -3 1.67 -4.33 1.08z m3.96 -1.50 c1.17 -1.50 1.12 -3.29 -0.17 -4.54 -2.91 -2.96 -7.37 1.21 -4.79 4.50 1.25 1.58 3.75 1.58 4.96 0.04z"/>
  <path d="M480.93 291.06 l0 -5.83 1.25 0 c1.04 0 1.58 0.50 3.96 3.62 l2.71 3.58 0 -3.58 c0 -3.50 0.04 -3.62 0.96 -3.58 0.67 0.04 0.75 0.08 0.21 0.25 -0.62 0.17 -0.75 0.71 -0.75 3.71 0 2.58 -0.12 3.50 -0.54 3.50 -0.29 0 -1.71 -1.58 -3.16 -3.54 -1.71 -2.29 -2.91 -3.54 -3.41 -3.54 -0.75 0 -0.79 0.37 -0.79 5.41 0 5.12 0.04 5.41 0.83 5.41 0.75 0 0.83 -0.29 0.83 -3.54 0 -2.75 0.12 -3.54 0.58 -3.54 0.33 0 1.79 1.58 3.21 3.54 2.50 3.37 3.75 4.25 4.25 3.04 0.12 -0.33 0.25 -0.25 0.25 0.21 0.04 0.50 -0.29 0.71 -1.17 0.71 -1.08 0 -1.58 -0.50 -3.87 -3.62 -2.46 -3.37 -2.62 -3.54 -2.75 -2.42 -0.08 0.62 -0.08 2.25 0 3.62 l0.12 2.42 -1.33 0 -1.37 0 0 -5.83z"/>
  <path d="M499.80 296.06 c-2.54 -1.50 -3.41 -5.37 -1.87 -7.99 1.46 -2.54 5.70 -3.58 8.54 -2.17 1.79 0.92 1.75 0.83 0.83 1.96 -0.71 0.92 -0.87 0.96 -1.58 0.46 -1.25 -0.92 -3.66 -0.75 -4.71 0.37 -2.17 2.33 -0.46 5.87 2.66 5.62 1.54 -0.12 1.62 -0.21 1.75 -1.67 0.12 -1.46 0.25 -1.58 1.37 -1.58 1.21 0 1.21 0.04 1.21 2.33 0 2.21 -0.04 2.29 -1.46 2.91 -2.04 0.83 -5.12 0.75 -6.75 -0.25z m6.66 -0.37 c1 -0.37 1.12 -0.67 1.12 -2.33 0 -1.58 -0.12 -1.87 -0.83 -1.87 -0.67 0 -0.83 0.29 -0.83 1.46 0 1.21 -0.21 1.54 -1.12 1.92 -1.42 0.54 -2.96 0.17 -4.16 -0.96 -0.75 -0.67 -0.96 -1.37 -0.96 -2.83 0 -3.21 1.62 -4.21 6.04 -3.62 1.46 0.17 1.21 -0.71 -0.33 -1.33 -2.21 -0.83 -4.29 -0.29 -6.20 1.62 -1.29 1.29 -1.58 1.87 -1.58 3.16 0 4.33 4.25 6.62 8.87 4.79z"/>
  <path d="M510.08 291.06 l0 -5.83 3.12 0 c3.46 0 5.70 0.71 6.41 2 0.83 1.54 0.54 3.79 -0.58 4.91 l-1.04 1.04 1.25 1.87 1.29 1.83 -1.67 0 c-1.50 0 -1.75 -0.17 -2.58 -1.67 -0.75 -1.33 -1.17 -1.67 -2.12 -1.67 -1.08 0 -1.17 0.12 -1.17 1.67 0 1.62 -0.04 1.67 -1.46 1.67 l-1.46 0 0 -5.83z m2.50 3.75 c0 -1.67 0 -1.67 1.67 -1.67 1.50 0 1.71 0.12 2.50 1.67 0.54 1.08 1.12 1.67 1.67 1.67 1.04 0 1.04 -0.33 0 -1.67 -1.04 -1.33 -1.04 -2.17 -0.04 -2.79 1.08 -0.67 1.50 -2.75 0.79 -4.16 -0.71 -1.46 -2.62 -2.17 -6.04 -2.17 l-2.62 -0.04 0 5.41 0 5.41 1.04 0 c0.96 0 1.04 -0.17 1.04 -1.67z"/>
  <path d="M512.66 289.52 l0.12 -2.42 2.04 0.04 c1.46 0 2.17 0.21 2.58 0.79 1.46 1.96 -0.04 3.96 -2.96 3.96 l-1.92 0 0.12 -2.37z m3.83 1.42 c0.50 -0.37 0.71 -0.96 0.58 -1.75 -0.12 -1.17 -0.29 -1.25 -2.08 -1.46 l-2 -0.25 0 2 c0 2 0 2 1.37 2 0.75 0 1.71 -0.25 2.12 -0.54z"/>
  <path d="M524.20 295.93 c-3.75 -2.50 -3.66 -7.54 0.17 -9.87 2.71 -1.67 7.16 -0.58 8.74 2.08 0.96 1.62 0.92 4.37 -0.12 6.04 -1.67 2.71 -6.08 3.58 -8.79 1.75z m5.79 -0.04 c2.21 -1.17 3.21 -2.62 3.21 -4.83 0 -1.67 -0.21 -2.25 -1.21 -3.29 -3.16 -3.29 -8.66 -2.25 -9.79 1.87 -1.21 4.41 3.71 8.37 7.79 6.25z"/>
  <path d="M526.07 294.81 c-2.96 -1.21 -3 -6.04 -0.08 -7.29 2.83 -1.17 5.33 0.54 5.33 3.58 0 2.79 -2.79 4.75 -5.25 3.71z m3.96 -1.50 c2.29 -2.91 -0.46 -6.66 -3.91 -5.33 -1.04 0.42 -1.96 2.58 -1.67 3.96 0.58 2.54 4 3.37 5.58 1.37z"/>
  <path d="M537.06 295.68 c-1.37 -1.21 -1.37 -1.25 -1.58 -5.83 l-0.21 -4.62 1.04 0.04 c0.71 0.04 0.79 0.12 0.33 0.25 -0.67 0.17 -0.75 0.71 -0.75 4.12 0 3.71 0.04 3.96 1.21 5.25 1.12 1.25 1.46 1.37 3.54 1.37 1.96 0 2.50 -0.17 3.46 -1.17 1.08 -1.08 1.17 -1.42 1.29 -5.33 l0.17 -4.21 -1 0.17 c-0.92 0.12 -0.96 0.29 -1.17 4.29 -0.21 4.04 -0.25 4.16 -1.37 4.71 -2.25 1.08 -4.41 -0.58 -4.46 -3.33 0 -0.67 0.21 -1.17 0.42 -1.17 0.25 0 0.42 0.71 0.42 1.58 0 1.96 0.58 2.58 2.37 2.58 1.83 0 2.21 -0.87 2.21 -5.37 l0 -3.79 1.46 0 1.46 0 0 4.41 0 4.41 -1.42 1.42 c-1.29 1.29 -1.67 1.42 -3.75 1.42 -1.96 0 -2.54 -0.17 -3.66 -1.21z"/>
  <path d="M547.97 291.02 l0 -5.87 3.75 0.17 c3.37 0.12 3.83 0.25 4.83 1.21 1.87 1.87 1.33 5.54 -0.96 6.58 -0.54 0.25 -1.83 0.46 -2.83 0.46 l-1.87 0 0 1.67 c0 1.62 -0.04 1.67 -1.46 1.67 l-1.46 0 0 -5.87z m2.50 3.83 l0 -1.62 2.29 -0.17 c2.91 -0.25 4.37 -1.46 4.37 -3.66 0 -2.42 -1.29 -3.33 -5.12 -3.62 l-3.16 -0.25 -0.12 5.50 c-0.12 5.41 -0.12 5.45 0.83 5.45 0.79 0 0.92 -0.21 0.92 -1.62z"/>
  <path d="M550.56 289.52 c0.12 -2.42 0.12 -2.42 1.50 -2.54 1.92 -0.21 3.41 0.87 3.41 2.42 0 1.71 -1 2.50 -3.16 2.50 l-1.87 0 0.12 -2.37z m3.16 1.71 c1.08 -0.29 1.67 -2 0.96 -2.83 -0.29 -0.33 -1.25 -0.67 -2.12 -0.75 l-1.67 -0.17 0 2 c0 1.79 0.08 2 0.96 2 0.50 0 1.33 -0.12 1.87 -0.25z"/>
  <path d="M395.37 266.70 c-1.83 -3.29 -3.54 -6 -3.79 -6.04 -0.25 0 -0.46 -0.29 -0.46 -0.62 0 -0.33 0.21 -0.62 0.46 -0.62 0.25 -0.04 4.58 -7.25 9.62 -16.07 l9.16 -16.03 1.50 0.12 1.54 0.12 -1.04 -0.96 -1 -0.92 0.79 -1.37 c0.46 -0.71 5.41 -8.99 11.03 -18.32 l10.20 -16.99 7.37 0 7.41 0 16.36 28.31 16.41 28.31 -3.62 6.25 c-3.08 5.37 -3.75 6.29 -4.62 6.29 -0.79 0 -0.96 0.17 -0.71 0.75 0.54 1.25 0.42 1.46 -3.12 7.70 l-3.50 6.12 -33.35 0 -33.31 -0.04 -3.33 -6z m69.87 4.46 c-0.04 -0.21 1.25 -2.71 2.87 -5.54 1.62 -2.83 2.96 -5.33 2.96 -5.58 0 -0.21 -1.33 -2.75 -2.96 -5.58 -1.62 -2.83 -2.91 -5.33 -2.87 -5.54 0.04 -0.25 -0.17 -0.54 -0.50 -0.62 -0.37 -0.17 -0.46 0 -0.29 0.62 0.21 0.58 -0.58 2.29 -2.66 5.87 -1.58 2.75 -2.91 5.12 -2.91 5.29 0 0.12 1.33 2.50 2.91 5.25 2.08 3.54 2.87 5.25 2.66 5.83 -0.17 0.62 -0.08 0.79 0.29 0.62 0.33 -0.08 0.54 -0.37 0.50 -0.62z m-2.62 -2.04 c-0.75 -1.33 -2.12 -3.79 -3.08 -5.41 l-1.71 -3.04 -32.56 0 c-31.35 0 -32.56 0.04 -31.85 0.75 0.42 0.42 1.92 2.83 3.37 5.41 l2.62 4.66 32.27 0 32.27 0 -1.33 -2.37z m-20.69 -9.16 c-9.24 -0.08 -24.32 -0.08 -33.52 0 -9.24 0.04 -1.71 0.08 16.74 0.08 18.45 0 25.98 -0.04 16.78 -0.08z m18.82 -5.62 c1.62 -2.79 3 -5.20 3.04 -5.41 0.08 -0.17 -11.49 -0.33 -25.69 -0.33 -14.24 0 -25.86 -0.08 -25.86 -0.17 0 -0.12 2.46 -4.46 5.45 -9.66 3 -5.16 5.54 -9.66 5.62 -9.91 0.12 -0.33 -0.33 -0.42 -1.50 -0.33 -1.33 0.12 -1.67 0.04 -1.67 -0.50 0 -0.54 0.50 -0.67 2.46 -0.67 l2.50 0 2.58 4.79 c1.92 3.54 2.79 4.79 3.37 4.79 0.71 0 0.62 -0.37 -0.87 -3 -0.96 -1.67 -2.33 -4.12 -3.08 -5.41 l-1.33 -2.42 -6.41 0 c-5.62 0 -6.33 0.08 -5.87 0.62 0.29 0.33 0.79 0.62 1.08 0.62 0.33 0 0.58 0.29 0.58 0.67 0 0.54 -0.37 0.62 -2 0.50 l-2.04 -0.12 -7.04 12.24 c-3.87 6.75 -7.91 13.70 -8.99 15.49 l-1.92 3.29 32.31 0 32.35 0 2.91 -5.08z m12.70 3 c0 -0.21 -0.17 -0.42 -0.42 -0.42 -0.21 0 -0.42 0.21 -0.42 0.42 0 0.25 0.21 0.42 0.42 0.42 0.25 0 0.42 -0.17 0.42 -0.42z m-1.37 -0.58 c-0.12 -0.25 -5.58 -9.74 -12.16 -21.07 -6.54 -11.33 -11.95 -20.94 -11.99 -21.32 -0.04 -0.79 -0.42 -0.62 -0.54 0.21 -0.04 0.29 -1.42 2.75 -3.08 5.45 -1.62 2.66 -2.91 5.04 -2.83 5.25 0.08 0.21 2.96 5.25 6.37 11.20 l6.25 10.83 5.62 0.04 5.62 0 2.83 4.91 c1.67 2.91 3.08 4.96 3.46 4.96 0.33 0 0.54 -0.21 0.46 -0.46z m4.50 -5.83 l3.08 -5.25 -15.82 -27.27 c-8.66 -14.99 -15.78 -27.69 -15.78 -28.15 0 -0.62 -0.17 -0.79 -0.67 -0.62 -0.37 0.12 -3.50 0.25 -6.95 0.25 l-6.33 0.04 -10.45 17.45 -10.45 17.49 6.29 0 6.29 -0.04 10.33 -17.24 c6.33 -10.58 10.58 -17.28 10.95 -17.28 0.33 0 0.54 0.12 0.46 0.33 -0.08 0.17 -4.79 7.99 -10.41 17.45 -5.66 9.41 -10.28 17.24 -10.28 17.41 0 0.17 1.33 2.54 2.91 5.29 2.04 3.50 2.83 5.29 2.66 5.87 -0.17 0.58 -0.08 0.75 0.29 0.58 0.33 -0.08 0.54 -0.37 0.50 -0.62 -0.08 -0.42 13.62 -23.15 14.37 -23.90 0.17 -0.12 6 9.62 12.99 21.74 7 12.08 12.74 21.90 12.82 21.86 0.08 -0.08 1.54 -2.50 3.21 -5.37z m-62.25 -3.16 c0 -0.25 2.33 -0.42 6.16 -0.42 l6.16 0 1.96 -3.46 c1.08 -1.92 1.96 -3.62 1.96 -3.79 0 -0.12 -1.33 -2.71 -2.96 -5.70 l-2.96 -5.41 -5.08 8.79 c-2.75 4.79 -5.37 9.12 -5.75 9.58 -0.62 0.71 -0.62 0.83 -0.12 0.83 0.33 0 0.62 -0.17 0.62 -0.42z m13.53 0 c-0.12 -0.21 -0.50 -0.29 -0.83 -0.12 -0.87 0.29 -0.79 0.54 0.25 0.54 0.46 0 0.75 -0.17 0.58 -0.42z m26.44 0.25 c0 -0.37 -1.25 -0.58 -1.46 -0.25 -0.17 0.25 0.12 0.42 0.58 0.42 0.50 0 0.87 -0.08 0.87 -0.17z m-1.67 -0.83 c0 -0.12 -2.33 -4.25 -5.20 -9.16 -2.83 -4.91 -5.54 -9.62 -6 -10.45 l-0.79 -1.50 -2.25 3.66 c-1.25 2 -2.91 4.75 -3.71 6.04 -1.04 1.75 -1.67 2.42 -2.33 2.42 -0.50 0 -1.04 -0.17 -1.17 -0.42 -0.33 -0.54 -1.04 -0.54 -1.04 0.04 0 0.21 0.12 0.33 0.33 0.21 0.17 -0.08 0.62 0.33 1 1 0.62 1.12 0.62 1.25 -0.75 3.54 -0.79 1.29 -1.71 2.87 -2.04 3.58 l-0.67 1.21 12.33 0 c6.75 0 12.28 -0.08 12.28 -0.17z m-27.90 -18.99 c0 -0.21 -0.17 -0.42 -0.42 -0.42 -0.21 0 -0.42 0.21 -0.42 0.42 0 0.25 0.21 0.42 0.42 0.42 0.25 0 0.42 -0.17 0.42 -0.42z m-0.42 -2.79 c-6.70 -0.33 -12.08 -0.29 -12.08 0.08 0 0.25 2.54 0.33 7.16 0.21 3.96 -0.08 6.16 -0.25 4.91 -0.29z"/>
 </g>
 <g fill="#888888">
  <path d="M437.88 311.13 c-0.42 -0.67 0.42 -1.17 2.04 -1.12 1.33 0 1.75 -0.21 2.17 -1.04 0.50 -1 0.54 -1 0.54 -0.12 0 0.50 -0.17 1.04 -0.42 1.17 -0.21 0.12 -0.42 0.46 -0.42 0.71 0 0.25 0.25 0.25 0.62 -0.08 0.37 -0.33 0.62 -1.08 0.54 -1.92 l-0.08 -1.42 -1.17 1.12 c-1 0.96 -1.33 1.04 -2.33 0.71 -2.42 -0.83 -2.58 -4.21 -0.25 -5.25 0.83 -0.37 1.25 -0.37 1.96 0.04 0.62 0.42 0.92 0.46 1.04 0.08 0.08 -0.25 0.54 -0.46 1 -0.46 0.79 0 0.83 0.21 0.67 3.37 -0.12 2.75 -0.29 3.46 -0.96 3.96 -0.83 0.62 -4.58 0.83 -4.96 0.25z m3 -0.37 c-0.42 -0.08 -1.17 -0.08 -1.67 0 -0.54 0.08 -0.21 0.17 0.71 0.17 0.92 0.04 1.33 -0.04 0.96 -0.17z m-1.21 -2.50 c-0.37 -0.08 -0.87 -0.75 -1.12 -1.50 -0.37 -1.25 -0.42 -1.25 -0.46 -0.25 -0.04 1.17 0.67 2.08 1.62 2 0.54 -0.04 0.54 -0.08 -0.04 -0.25z m2.46 -1.67 c0.25 -1.62 -2.42 -2.25 -3 -0.71 -0.46 1.17 0.21 1.87 1.58 1.75 0.96 -0.08 1.33 -0.37 1.42 -1.04z m0.83 -0.42 c-0.04 -0.42 0.04 -1 0.21 -1.25 0.21 -0.29 0.17 -0.54 -0.08 -0.54 -0.62 0 -0.87 0.58 -0.58 1.58 0.25 1.08 0.62 1.21 0.46 0.21z"/>
  <path d="M464.15 310.71 c0.12 -0.58 0.46 -0.75 1 -0.62 0.42 0.12 0.79 0.42 0.79 0.67 0 0.25 0.08 0.33 0.21 0.21 0.12 -0.08 -0.46 -1.75 -1.25 -3.62 -0.79 -1.87 -1.46 -3.50 -1.46 -3.62 0 -0.08 0.37 -0.17 0.83 -0.17 0.87 0 1.46 1 1.87 3.25 0.17 0.92 0.08 0.83 -0.54 -0.42 -1.08 -2.21 -1.58 -2.54 -0.71 -0.54 0.37 0.92 0.87 2.17 1.12 2.83 0.50 1.29 1.17 1.50 1.17 0.33 0 -0.46 0.21 -0.96 0.42 -1.08 0.25 -0.12 0.42 -0.58 0.37 -0.96 0 -0.50 -0.12 -0.46 -0.37 0.25 -0.21 0.50 -0.54 0.92 -0.79 0.92 -0.21 0 0 -1.04 0.50 -2.29 0.62 -1.71 1.04 -2.29 1.62 -2.29 0.92 0 0.92 -0.08 -0.87 4.58 -1.12 3 -1.25 3.12 -2.66 3.25 -1.29 0.12 -1.46 0.04 -1.25 -0.67z m4.46 -5.33 c0.42 -1.04 -0.04 -1.21 -0.58 -0.21 -0.25 0.50 -0.29 0.87 -0.04 0.87 0.21 0 0.50 -0.29 0.62 -0.67z"/>
  <path d="M397.32 305.84 l-0.04 -3.96 2.71 0 c2.33 0 2.71 0.12 3.29 1 0.33 0.54 0.54 1.25 0.37 1.62 -0.33 0.87 -3.75 1.42 -4.83 0.75 -0.71 -0.42 -0.75 -0.29 -0.75 1.83 l0 2.29 1.92 0 c2.50 0 3.50 -0.58 3.50 -2 0 -0.79 -0.12 -0.96 -0.37 -0.54 -0.25 0.37 -0.46 0.42 -0.62 0.08 -0.17 -0.25 -1.04 -0.46 -1.96 -0.46 -1.37 0 -1.62 0.12 -1.62 0.87 0 0.83 0.17 0.87 2.08 0.71 2.33 -0.25 2.83 0.33 0.67 0.71 -2.25 0.46 -2.96 0.17 -3.08 -1.33 l-0.12 -1.29 2.33 -0.17 c1.75 -0.08 2.50 0.04 2.96 0.54 0.79 0.87 0.75 1.46 -0.25 2.46 -0.67 0.67 -1.37 0.83 -3.50 0.83 l-2.66 0 0 -3.96z m4.46 -1.21 c0.62 -0.71 0.08 -1.12 -1.67 -1.33 -1.04 -0.12 -1.21 0 -1.21 0.87 0 0.87 0.21 1.04 1.21 1.04 0.67 0 1.42 -0.25 1.67 -0.58z m0.92 -1.67 c-0.25 -0.29 -1.37 -0.54 -2.54 -0.62 -2.04 -0.08 -2.08 -0.04 -2.04 1.08 0 1.12 0.04 1.12 0.37 0.25 0.62 -1.58 4.08 -1.04 4.21 0.62 0.04 0.62 0.08 0.62 0.25 -0.04 0.12 -0.42 0 -1 -0.25 -1.29z"/>
  <path d="M406.07 309.30 c-0.29 -0.29 -0.50 -1.62 -0.50 -3.12 0 -2.33 0.08 -2.62 0.83 -2.62 0.75 0 0.83 0.29 0.83 2.25 0 1.25 0.21 2.42 0.42 2.54 0.92 0.54 1.67 -0.71 1.67 -2.75 0 -1.75 0.12 -2.04 0.83 -2.04 0.75 0 0.83 0.29 0.83 3.12 0 2.83 -0.08 3.12 -0.83 3.12 -0.46 0 -0.83 -0.21 -0.83 -0.50 0 -0.37 -0.12 -0.37 -0.50 0 -0.29 0.29 -0.87 0.50 -1.37 0.50 -0.50 0 -1.08 -0.21 -1.37 -0.50z m1.37 -0.50 c-0.58 -0.42 -0.79 -1.08 -0.83 -2.46 0 -1.04 -0.12 -1.79 -0.29 -1.67 -0.54 0.29 -0.37 3.66 0.17 4.21 0.29 0.29 0.79 0.50 1.12 0.50 0.46 0 0.42 -0.12 -0.17 -0.58z m3.12 -1.92 c0 -1.37 -0.17 -2.50 -0.42 -2.50 -0.25 0 -0.42 1.12 -0.42 2.50 0 1.37 0.17 2.50 0.42 2.50 0.25 0 0.42 -1.12 0.42 -2.50z"/>
  <path d="M412.65 306.67 c0 -2.83 0.08 -3.12 0.83 -3.12 0.75 0 0.83 0.29 0.83 3.12 0 2.83 -0.08 3.12 -0.83 3.12 -0.75 0 -0.83 -0.29 -0.83 -3.12z m1.25 0.21 c0 -1.37 -0.17 -2.50 -0.42 -2.50 -0.25 0 -0.42 1.12 -0.42 2.50 0 1.37 0.17 2.50 0.42 2.50 0.25 0 0.42 -1.12 0.42 -2.50z"/>
  <path d="M415.98 305.63 c0 -3.87 0.04 -4.16 0.83 -4.16 0.79 0 0.83 0.29 0.83 4.16 0 3.87 -0.04 4.16 -0.83 4.16 -0.79 0 -0.83 -0.29 -0.83 -4.16z m1.25 -0.08 c0 -2.08 -0.12 -3.71 -0.25 -3.58 -0.37 0.37 -0.46 7.41 -0.08 7.41 0.21 0 0.33 -1.71 0.33 -3.83z"/>
  <path d="M419.97 308.88 c-0.92 -1.29 -0.83 -3.50 0.17 -4.50 0.92 -0.92 2.50 -1.08 3.25 -0.33 0.37 0.37 0.50 0.17 0.50 -1.04 0 -1.25 0.17 -1.54 0.83 -1.54 0.79 0 0.83 0.29 0.83 4.16 0 3.87 -0.04 4.16 -0.83 4.16 -0.46 0 -0.83 -0.21 -0.83 -0.50 0 -0.37 -0.12 -0.37 -0.50 0 -0.83 0.83 -2.71 0.58 -3.41 -0.42z m5.16 -3.25 c0 -3.79 -0.62 -5.16 -0.92 -2.08 -0.08 0.92 -0.04 1.67 0.12 1.67 0.17 0 0.12 0.75 -0.08 1.71 -0.37 1.71 -0.25 2.46 0.50 2.46 0.21 0 0.37 -1.67 0.37 -3.75z m-4.46 1.62 c-0.21 -0.75 -0.96 -1.12 -0.96 -0.46 0.04 1.04 0.58 2.17 0.83 1.75 0.17 -0.29 0.21 -0.87 0.12 -1.29z m2.71 0.79 c1.33 -1.33 -0.12 -3.66 -1.71 -2.79 -1.25 0.71 -0.67 3.29 0.75 3.29 0.25 0 0.67 -0.21 0.96 -0.50z m-3 -2.37 c-0.12 -0.17 0.25 -0.54 0.87 -0.83 0.58 -0.25 0.96 -0.58 0.83 -0.75 -0.33 -0.29 -2.37 1 -2.37 1.54 0 0.25 0.21 0.42 0.46 0.42 0.21 0 0.33 -0.17 0.21 -0.37z"/>
  <path d="M427.22 306.67 c0 -2.83 0.08 -3.12 0.83 -3.12 0.75 0 0.83 0.29 0.83 3.12 0 2.83 -0.08 3.12 -0.83 3.12 -0.75 0 -0.83 -0.29 -0.83 -3.12z m1.25 0.21 c0 -1.37 -0.17 -2.50 -0.42 -2.50 -0.25 0 -0.42 1.12 -0.42 2.50 0 1.37 0.17 2.50 0.42 2.50 0.25 0 0.42 -1.12 0.42 -2.50z"/>
  <path d="M430.55 306.67 c0 -2.83 0.08 -3.12 0.83 -3.12 0.46 0 0.83 0.21 0.83 0.42 0 0.25 0.33 0.21 0.79 -0.08 0.62 -0.37 1.08 -0.37 1.83 -0.04 0.96 0.46 1.08 0.79 1.21 3.21 0.12 2.62 0.08 2.75 -0.79 2.75 -0.87 0 -0.96 -0.21 -0.96 -2.33 0 -2.17 -0.04 -2.29 -0.92 -2.17 -0.83 0.12 -0.96 0.42 -1.08 2.33 -0.12 1.83 -0.25 2.17 -0.96 2.17 -0.71 0 -0.79 -0.29 -0.79 -3.12z m1.33 0.83 c0 -1.04 0.04 -2.08 0.08 -2.37 0.04 -0.25 -0.21 -0.54 -0.46 -0.62 -0.42 -0.17 -0.54 0.50 -0.54 2.33 0 2.91 0.79 3.50 0.92 0.67z m3.66 -0.42 c0 -1.87 -0.17 -2.33 -0.87 -2.71 -1.21 -0.67 -1.46 -0.25 -0.42 0.79 0.58 0.58 0.87 1.42 0.87 2.54 0 0.92 0.08 1.67 0.21 1.67 0.12 0 0.21 -1.04 0.21 -2.29z"/>
  <path d="M448.87 305.84 l0 -3.96 2.33 0 c2.96 0 3.91 0.50 3.91 2.08 0 0.62 -0.25 1.29 -0.50 1.42 -0.37 0.12 -0.33 0.33 0.21 0.67 1 0.62 0.92 2.75 -0.08 3.33 -0.46 0.21 -1.96 0.42 -3.33 0.42 l-2.54 0 0 -3.96z m5.58 2.87 c0.79 -0.75 0.87 -1.67 0.17 -2.08 -0.33 -0.21 -0.37 -0.08 -0.21 0.37 0.42 1.08 -0.87 2 -2.58 1.87 -1.29 -0.12 -1.50 -0.29 -1.62 -1.33 -0.08 -0.67 0.08 -1.33 0.42 -1.54 0.46 -0.29 0.46 -0.37 0 -0.37 -0.37 0 -0.50 -0.46 -0.42 -1.33 0.12 -1.21 0.29 -1.37 1.50 -1.50 1.62 -0.17 2.66 0.50 2.29 1.46 -0.17 0.46 -0.08 0.58 0.21 0.37 0.75 -0.46 0.58 -1.42 -0.29 -1.92 -0.46 -0.21 -1.62 -0.42 -2.62 -0.42 l-1.79 0 0 3.54 0 3.54 2.17 0 c1.42 0 2.37 -0.21 2.79 -0.67z m-0.67 -1.29 c-0.08 -0.54 -0.58 -0.79 -1.71 -0.87 -1.33 -0.12 -1.54 0 -1.54 0.71 0 0.75 0.25 0.87 1.71 0.87 1.37 0 1.67 -0.12 1.54 -0.71z m-0.46 -2.87 c0.29 -0.79 -0.54 -1.42 -1.83 -1.42 -0.75 0 -0.96 0.25 -0.96 1.04 0 0.87 0.21 1.04 1.25 1.04 0.79 0 1.37 -0.25 1.54 -0.67z"/>
  <path d="M457.62 308.96 c-1.25 -1.25 -1.12 -3.46 0.25 -4.54 0.62 -0.50 1.54 -0.87 2.08 -0.87 1.04 0 2.66 1.79 2.66 2.96 0 0.67 -0.33 0.79 -2.08 0.79 -1.21 0 -2.08 0.21 -2.08 0.46 0 0.21 -0.21 0.29 -0.50 0.12 -0.25 -0.17 -0.33 -0.12 -0.17 0.17 0.12 0.25 1.12 0.37 2.17 0.33 1.92 -0.12 2.79 0.42 1.79 1.04 -1.04 0.67 -3.25 0.42 -4.12 -0.46z m3.04 0.12 c-0.29 -0.08 -0.87 -0.08 -1.25 0 -0.42 0.12 -0.17 0.21 0.50 0.21 0.71 0 1 -0.08 0.75 -0.21z m-2.42 -2.21 c0.12 -0.21 0.83 -0.42 1.50 -0.42 1.46 0 1.46 -0.62 -0.04 -1.62 -0.54 -0.37 -0.87 -0.46 -0.75 -0.25 0.17 0.25 -0.12 0.92 -0.54 1.46 -0.75 0.92 -0.79 0.92 -0.42 0.12 0.29 -0.58 0.33 -1 0.04 -1.17 -0.21 -0.12 -0.42 -0.12 -0.42 0.08 0 0.17 -0.12 0.75 -0.25 1.29 -0.25 0.92 0.37 1.29 0.87 0.50z m3.71 -1 c-0.12 -0.37 -0.42 -0.67 -0.62 -0.67 -0.25 0 -0.21 0.37 0.04 0.87 0.54 1 1 0.83 0.58 -0.21z"/>
  <path d="M471.40 308.71 c-1.17 -1.46 -1.08 -2.87 0.17 -4.12 2.37 -2.42 6.45 0.08 5.25 3.25 -0.83 2.21 -3.96 2.71 -5.41 0.87z m0.87 -0.25 c-0.29 -0.29 -0.50 -1.04 -0.50 -1.71 0 -0.67 -0.17 -1.08 -0.42 -0.92 -0.21 0.12 -0.42 0.54 -0.42 0.87 0 0.79 1.29 2.75 1.58 2.46 0.12 -0.12 0 -0.46 -0.25 -0.71z m2.12 0.62 c-0.29 -0.08 -0.79 -0.08 -1.04 0 -0.29 0.12 -0.08 0.21 0.50 0.21 0.58 0 0.79 -0.08 0.54 -0.21z m0.79 -1.58 c0.58 -1.33 -0.21 -2.37 -1.71 -2.21 -0.75 0.08 -1.12 0.42 -1.21 1.08 -0.29 2.08 2.04 3 2.91 1.12z m1.17 -0.75 c0 -0.50 -0.17 -1.17 -0.33 -1.42 -0.21 -0.29 -0.33 0.17 -0.29 1.08 0 0.92 0.12 1.54 0.33 1.42 0.17 -0.08 0.29 -0.58 0.29 -1.08z"/>
  <path d="M478.44 306.67 c0 -2.83 0.08 -3.12 0.83 -3.12 0.46 0 0.83 0.21 0.83 0.42 0 0.25 0.33 0.21 0.79 -0.08 0.62 -0.37 1.04 -0.37 1.87 0 1 0.46 1.08 0.67 1.08 3.21 0 2.42 -0.08 2.71 -0.83 2.71 -0.75 0 -0.83 -0.29 -0.83 -2.33 0 -2.17 -0.04 -2.29 -0.92 -2.17 -0.83 0.12 -0.96 0.42 -1.08 2.33 -0.12 1.83 -0.25 2.17 -0.96 2.17 -0.71 0 -0.79 -0.29 -0.79 -3.12z m1.25 0.21 c0 -1.37 -0.17 -2.50 -0.42 -2.50 -0.25 0 -0.42 1.12 -0.42 2.50 0 1.37 0.17 2.50 0.42 2.50 0.25 0 0.42 -1.12 0.42 -2.50z m3.75 0.46 c0 -2.21 -0.79 -3.50 -1.87 -3.12 -0.87 0.33 -0.79 0.67 0.12 0.50 0.58 -0.12 0.71 0.25 0.83 2.29 0.17 2.91 0.92 3.16 0.92 0.33z"/>
  <path d="M486.22 309.26 c-0.42 -0.25 -0.83 -1.21 -0.96 -2.04 -0.21 -1.25 -0.08 -1.71 0.79 -2.58 1.12 -1.08 2.54 -1.42 3 -0.67 0.54 0.87 0.87 0.37 0.71 -1.04 -0.17 -1.29 -0.08 -1.46 0.79 -1.46 1 0 1 0.08 1 4.16 0 4.08 -0.04 4.16 -0.96 4.16 -0.54 0 -0.83 -0.17 -0.71 -0.42 0.12 -0.21 0.04 -0.42 -0.17 -0.42 -0.25 0 -0.46 0.21 -0.46 0.42 0 0.58 -2.21 0.50 -3.04 -0.12z m2.62 -0.04 c0 -0.29 -1.67 -0.58 -1.83 -0.29 -0.12 0.17 0.25 0.33 0.83 0.37 0.54 0.04 1 0 1 -0.08z m2.04 -3.66 c-0.04 -2.12 -0.17 -3.29 -0.25 -2.62 -0.12 0.71 -0.33 1.42 -0.54 1.62 -0.21 0.21 -0.21 0.71 0.04 1.21 0.33 0.54 0.33 1.12 0.04 1.75 -0.29 0.67 -0.29 1.08 0.04 1.42 0.25 0.25 0.50 0.46 0.58 0.46 0.08 0 0.08 -1.75 0.08 -3.83z m-4.66 1.75 c-0.17 -0.92 0.04 -1.46 0.87 -2.29 0.58 -0.62 0.75 -0.96 0.37 -0.83 -1.08 0.46 -2 2.17 -1.71 3.33 0.37 1.46 0.67 1.29 0.46 -0.21z m2.79 1 c0.96 -0.37 0.87 -2.54 -0.12 -3.08 -0.62 -0.29 -0.96 -0.25 -1.46 0.25 -0.79 0.75 -0.83 1.17 -0.25 2.29 0.46 0.83 0.79 0.96 1.83 0.54z"/>
  <path d="M412.65 302.30 c0 -0.54 0.29 -0.83 0.83 -0.83 0.54 0 0.83 0.29 0.83 0.83 0 0.54 -0.29 0.83 -0.83 0.83 -0.54 0 -0.83 -0.29 -0.83 -0.83z"/>
  <path d="M427.22 302.30 c0 -0.54 0.29 -0.83 0.83 -0.83 0.54 0 0.83 0.29 0.83 0.83 0 0.54 -0.29 0.83 -0.83 0.83 -0.54 0 -0.83 -0.29 -0.83 -0.83z"/>
  <path d="M409.65 296.60 c0.87 -0.17 0.92 -0.33 0.92 -4.54 0 -2.83 0.17 -4.29 0.42 -4.12 0.25 0.12 0.42 2.17 0.42 4.62 l0 4.33 -1.33 -0.04 c-1 -0.04 -1.12 -0.12 -0.42 -0.25z"/>
  <path d="M455.87 296.60 c0.87 -0.17 0.92 -0.33 0.92 -4.54 0 -2.83 0.17 -4.29 0.42 -4.12 0.25 0.12 0.42 2.17 0.42 4.62 l0 4.33 -1.33 -0.04 c-1 -0.04 -1.12 -0.12 -0.42 -0.25z"/>
  <path d="M490.43 296.60 c0.37 -0.12 0.50 -1.67 0.50 -5.54 0 -5.20 -0.04 -5.37 -0.92 -5.54 -0.71 -0.12 -0.58 -0.21 0.42 -0.25 l1.37 -0.04 -0.08 5.83 c-0.04 5.66 -0.08 5.83 -0.92 5.79 -0.50 0 -0.67 -0.12 -0.37 -0.25z"/>
  <path d="M336.70 294.93 c-0.37 -2.37 -0.29 -6.08 0.17 -6.79 0.29 -0.42 0.42 0.79 0.42 3.87 0 2.46 -0.08 4.46 -0.17 4.46 -0.08 0 -0.25 -0.71 -0.42 -1.54z"/>
  <path d="M366.22 295.26 c0.12 -0.21 -0.08 -0.71 -0.46 -1.08 -0.37 -0.37 -0.54 -0.79 -0.42 -0.92 0.42 -0.42 2.04 1.42 1.75 1.92 -0.17 0.25 -0.50 0.46 -0.71 0.46 -0.25 0 -0.33 -0.17 -0.17 -0.37z"/>
  <path d="M427.97 292.47 c-0.21 -0.17 -0.33 -1.87 -0.33 -3.79 l0 -3.46 1.37 0.04 c0.92 0.04 1.04 0.12 0.42 0.25 -0.87 0.17 -0.92 0.46 -1.04 3.75 -0.08 1.92 -0.25 3.37 -0.42 3.21z"/>
  <path d="M341.32 292.02 c-0.50 -0.46 -0.33 -1.58 0.37 -2.46 0.58 -0.75 0.62 -0.75 0.17 0.21 -0.29 0.50 -0.42 1.33 -0.29 1.75 0.21 0.83 0.17 0.96 -0.25 0.50z"/>
  <path d="M344.02 291.48 c0 -0.58 0.08 -0.79 0.21 -0.50 0.08 0.25 0.08 0.75 0 1.04 -0.12 0.25 -0.21 0.04 -0.21 -0.54z"/>
  <path d="M537.81 291.64 c-0.12 -0.37 -0.25 -1.83 -0.25 -3.29 0 -2.42 -0.08 -2.66 -0.92 -2.83 -0.71 -0.12 -0.58 -0.21 0.42 -0.25 l1.33 -0.04 0 3.54 c0 3.54 -0.12 4.12 -0.58 2.87z"/>
  <path d="M425.68 289.39 c0 -1.04 0.08 -1.46 0.17 -0.92 0.08 0.50 0.08 1.33 0 1.87 -0.08 0.50 -0.17 0.08 -0.17 -0.96z"/>
  <path d="M330.62 286.48 c0 -0.79 0.21 -1.25 0.58 -1.25 0.37 0 0.50 0.29 0.37 0.83 -0.12 0.46 0 0.83 0.25 0.83 0.25 0 0.46 0.21 0.46 0.42 0 0.25 -0.37 0.42 -0.83 0.42 -0.67 0 -0.83 -0.29 -0.83 -1.25z"/>
  <path d="M465.11 272.65 c0 -0.62 1 -2.42 1.33 -2.42 0.33 0 0.04 0.71 -0.92 2.08 -0.21 0.33 -0.42 0.50 -0.42 0.33z"/>
  <path d="M467.19 272.11 c0.29 -0.33 3.54 -5.91 7.25 -12.41 l6.70 -11.78 6.83 11.95 c3.75 6.58 7 12.16 7.25 12.41 0.33 0.33 -3.50 0.46 -14.03 0.46 -12.82 0 -14.45 -0.08 -13.99 -0.62z m26.77 -0.50 c-0.12 -0.42 -0.46 -1.04 -0.75 -1.37 -0.29 -0.33 -0.62 -0.92 -0.79 -1.25 -0.17 -0.33 -0.50 -1 -0.79 -1.46 -0.29 -0.46 -1.04 -1.79 -1.71 -3 -0.67 -1.21 -1.37 -2.08 -1.62 -1.92 -0.25 0.12 -0.29 0.04 -0.12 -0.21 0.29 -0.46 -1.75 -4.62 -2.91 -5.95 -0.33 -0.33 -0.58 -0.75 -0.58 -0.87 0 -0.50 -3.41 -6.20 -3.62 -6 -0.12 0.08 -1.46 2.29 -3 4.91 -1.83 3.04 -2.66 4.83 -2.37 5 0.29 0.21 0.17 0.33 -0.25 0.33 -0.42 0 -0.75 0.17 -0.75 0.42 0 0.21 -0.83 1.75 -1.79 3.41 -3.04 5.08 -4.25 7.16 -4.54 7.95 -0.29 0.67 0.50 0.71 12.78 0.71 12.28 0 13.07 -0.04 12.82 -0.71z"/>
  <path d="M466.78 269.70 c0 -0.50 1.46 -3.41 1.96 -3.91 1.04 -1.12 0.87 -0.46 -0.33 1.67 -1.37 2.33 -1.62 2.66 -1.62 2.25z"/>
  <path d="M469.69 264.62 c0 -0.21 0.58 -1.33 1.25 -2.50 0.67 -1.12 1.25 -1.87 1.25 -1.67 0 0.25 -0.58 1.37 -1.25 2.50 -0.67 1.17 -1.25 1.92 -1.25 1.67z"/>
  <path d="M474.69 255.92 c0 -0.54 2.29 -4.41 2.58 -4.41 0.17 0 -0.25 1 -0.96 2.21 -1.42 2.42 -1.62 2.66 -1.62 2.21z"/>
  <path d="M477.60 250.84 c0 -0.21 0.29 -0.79 0.62 -1.25 0.33 -0.42 0.62 -1.04 0.62 -1.33 0 -0.29 0.29 -0.83 0.62 -1.17 0.33 -0.37 0.62 -0.50 0.62 -0.29 0 0.54 -2.50 4.54 -2.50 4.04z"/>
  <path d="M412.90 227.98 c1.17 -0.87 8.49 -0.87 8.49 0 0 0.50 -0.79 0.62 -4.66 0.62 -4.16 0 -4.58 -0.04 -3.83 -0.62z"/>
 </g>
<g>
   <text fill="#696969" font-family="Arial" x="50.015263%" y="58.316063%" text-anchor="middle" dominant-baseline="central" font-size="6.9840803">TC CONSTRUCTION GROUP</text>
   <text fill="#f05f5e" font-family="Arial" x="50.019905%" y="61.421436%" text-anchor="middle" dominant-baseline="central" font-size="4.8598175">Building Beyond</text>
</g>
</svg>